{"glyphs":{"0":{"ha":1183,"x_min":0,"x_max":0,"o":"m 814 423 b 591 245 814 275 703 245 b 439 279 536 245 481 254 b 369 423 396 304 369 349 l 369 490 b 591 667 369 637 481 667 b 745 634 648 667 702 659 b 814 490 786 608 814 564 z m 817 912 b 591 935 743 928 665 935 b 366 912 517 935 439 928 b 203 852 307 899 252 880 b 14 512 91 790 14 684 l 14 401 b 366 1 14 153 176 42 b 591 -22 439 -16 517 -22 b 817 1 665 -22 743 -16 b 981 60 876 14 930 33 b 1170 401 1093 123 1170 229 l 1170 512 b 817 912 1170 759 1007 871 z "},"1":{"ha":1005,"x_min":0,"x_max":0,"o":"m 336 911 l 58 823 l 58 534 l 336 623 l 336 267 l 14 267 l 14 0 l 991 0 l 991 267 l 692 267 l 692 911 z "},"2":{"ha":1183,"x_min":0,"x_max":0,"o":"m 1170 630 b 613 935 1170 852 964 935 b 28 568 268 935 28 876 l 385 568 b 628 674 382 653 496 673 b 813 607 755 674 813 646 b 555 496 813 559 699 531 b 14 155 321 440 14 363 l 14 1 l 1155 1 l 1155 261 l 575 261 b 772 339 602 294 677 317 b 1170 630 947 382 1170 440 z "},"3":{"ha":1183,"x_min":0,"x_max":0,"o":"m 1170 655 b 606 934 1170 846 964 934 b 14 569 253 934 14 873 l 370 569 b 621 665 368 666 481 663 b 813 594 749 665 813 642 b 497 536 813 536 777 536 l 497 376 b 813 318 777 376 813 377 b 621 248 813 270 754 248 b 370 343 481 250 368 246 l 14 343 b 606 -22 14 39 253 -22 b 1170 257 964 -22 1170 67 b 1025 456 1170 349 1118 413 b 1170 655 1118 500 1170 564 z "},"4":{"ha":1183,"x_min":0,"x_max":0,"o":"m 369 422 l 680 650 l 680 422 z m 680 911 l 14 422 l 14 155 l 680 155 l 680 0 l 1036 0 l 1036 155 l 1170 155 l 1170 422 l 1036 422 l 1036 911 z "},"5":{"ha":1183,"x_min":0,"x_max":0,"o":"m 406 582 l 425 667 l 1103 667 l 1103 912 l 125 912 l 14 423 l 14 421 l 497 421 b 813 318 777 421 813 376 b 621 248 813 270 754 248 b 370 343 481 250 368 246 l 14 343 b 606 -22 14 39 253 -22 b 1022 58 785 -22 924 5 b 1170 279 1120 111 1170 184 b 497 582 1170 557 861 582 z "},"6":{"ha":1183,"x_min":0,"x_max":0,"o":"m 851 311 b 610 209 851 216 667 209 b 332 279 351 208 334 263 l 332 367 l 353 372 b 496 389 385 380 432 385 b 689 387 561 394 625 393 b 833 345 753 382 801 368 b 851 311 849 332 851 319 z m 1092 468 b 911 551 1044 507 983 534 b 688 583 838 569 764 579 b 484 581 611 586 543 585 b 363 570 425 578 385 574 l 331 564 l 331 587 b 498 685 331 675 449 685 l 1100 685 l 1100 912 l 607 912 b 14 553 241 912 14 852 l 14 337 b 607 -22 14 38 241 -22 b 1170 304 1072 -22 1170 156 b 1092 468 1170 369 1144 424 z "},"7":{"ha":1094,"x_min":0,"x_max":0,"o":"m 703 645 l 125 0 l 570 0 l 1080 645 l 1080 911 l 14 911 l 14 645 z "},"8":{"ha":1183,"x_min":0,"x_max":0,"o":"m 591 231 b 380 318 433 231 380 265 b 591 403 380 370 431 403 b 803 318 753 403 803 369 b 591 231 803 267 751 231 z m 591 709 b 761 649 730 709 761 687 b 591 589 761 610 732 589 b 422 649 452 589 422 610 b 591 709 422 687 453 709 z m 957 513 b 1071 694 1033 553 1071 613 b 591 934 1071 857 941 934 b 112 694 242 934 112 858 b 227 513 112 612 150 551 b 14 272 73 472 14 392 b 591 -22 14 80 143 -22 b 1170 272 1039 -22 1170 81 b 957 513 1170 392 1109 472 z "},"9":{"ha":1183,"x_min":0,"x_max":0,"o":"m 332 602 b 572 704 332 696 517 704 b 851 634 832 704 851 650 l 852 545 l 831 541 b 687 523 799 533 751 528 b 494 525 623 519 558 519 b 351 568 429 531 382 545 b 332 602 334 581 332 593 z m 91 445 b 271 361 139 406 199 378 b 495 330 344 344 418 333 b 699 331 572 326 640 327 b 820 343 758 335 799 339 l 852 349 l 852 326 b 685 228 852 237 734 228 l 83 228 l 83 1 l 576 1 b 1170 359 942 1 1170 60 l 1170 575 b 576 935 1170 875 942 935 b 14 608 111 935 14 757 b 91 445 14 543 39 489 z "}," ":{"ha":678,"x_min":0,"x_max":0,"o":""},"!":{"ha":382,"x_min":0,"x_max":0,"o":"m 14 1000 l 14 400 l 369 400 l 369 1000 z m 14 267 l 14 0 l 369 0 l 369 267 z "},"\"":{"ha":712,"x_min":0,"x_max":0,"o":"m 632 489 l 699 1000 l 387 1000 l 454 489 z m 258 489 l 325 1000 l 14 1000 l 80 489 z "},"#":{"ha":1522,"x_min":0,"x_max":0,"o":"m 903 578 l 864 422 l 620 422 l 658 578 z m 517 0 l 555 155 l 799 155 l 761 0 l 1095 0 l 1133 155 l 1419 155 l 1419 422 l 1198 422 l 1236 578 l 1508 578 l 1508 845 l 1301 845 l 1339 1000 l 1006 1000 l 968 845 l 723 845 l 761 1000 l 428 1000 l 389 845 l 102 845 l 102 578 l 324 578 l 286 422 l 14 422 l 14 155 l 221 155 l 183 0 z "},"$":{"ha":1227,"x_min":0,"x_max":0,"o":"m 376 620 b 514 700 376 648 401 689 l 514 584 b 376 620 398 588 376 593 z m 865 313 b 714 231 865 287 842 244 l 714 357 b 865 313 844 352 865 344 z m 14 317 b 514 5 13 85 192 18 l 514 -136 l 714 -136 l 714 6 b 1214 321 1036 18 1214 107 b 714 576 1214 523 1025 562 l 714 694 b 847 627 803 680 847 657 l 1196 627 b 714 922 1196 821 1013 907 l 714 1065 l 514 1065 l 514 923 b 27 635 197 907 27 808 b 140 438 27 544 65 478 b 514 365 216 398 340 374 l 514 232 b 363 317 390 247 363 283 z "},"%":{"ha":1908,"x_min":0,"x_max":0,"o":"m 609 0 l 943 0 l 1298 1000 l 965 1000 z m 1412 321 b 1531 412 1412 384 1449 412 b 1616 394 1569 412 1597 406 b 1650 321 1638 380 1650 356 l 1650 279 b 1531 188 1650 216 1613 188 b 1446 206 1493 188 1465 194 b 1412 279 1423 220 1412 244 z m 1390 14 b 1531 0 1437 5 1484 0 b 1672 14 1577 0 1625 5 b 1775 52 1710 22 1744 35 b 1894 265 1846 90 1894 157 l 1894 335 b 1672 587 1894 490 1792 561 b 1531 600 1625 595 1577 600 b 1390 587 1484 600 1437 595 b 1286 549 1352 578 1318 566 b 1168 335 1216 510 1168 443 l 1168 265 b 1390 14 1168 109 1270 41 z m 258 721 b 376 812 258 784 294 812 b 461 794 414 812 443 806 b 496 721 484 781 496 756 l 496 680 b 376 588 496 616 458 588 b 292 606 339 588 311 594 b 258 680 269 620 258 644 z m 132 949 b 14 735 61 910 14 843 l 14 665 b 235 414 14 510 115 440 b 376 400 283 405 330 400 b 518 414 423 400 470 405 b 621 452 555 422 589 435 b 739 665 692 490 739 557 l 739 735 b 518 987 741 892 637 960 b 376 1000 470 996 423 1000 b 235 987 330 1000 283 996 b 132 949 198 979 163 966 z "},"&":{"ha":1227,"x_min":0,"x_max":0,"o":"m 781 317 b 547 230 781 266 707 230 b 336 317 387 230 336 264 b 547 402 336 370 386 402 l 781 402 z m 1080 402 l 1214 402 l 1214 577 l 758 577 l 547 577 b 378 648 407 577 378 610 b 547 730 378 687 409 730 b 736 663 711 730 726 692 l 1025 663 b 1026 693 1025 673 1026 683 b 758 920 1026 818 948 892 b 547 934 700 929 629 934 b 68 693 197 934 68 857 b 182 513 68 611 106 551 b 14 271 27 471 14 356 b 547 -22 15 157 98 -23 b 1080 271 995 -22 1080 156 z "},"'":{"ha":338,"x_min":0,"x_max":0,"o":"m 258 489 l 325 1000 l 14 1000 l 80 489 z "},"(":{"ha":627,"x_min":0,"x_max":0,"o":"m 614 -137 l 614 130 l 436 130 b 357 162 406 130 379 140 b 325 241 336 184 325 210 l 325 686 b 357 764 325 716 336 743 b 436 797 379 786 406 797 l 614 797 l 614 1063 l 325 1063 b 14 752 155 1065 12 922 l 14 174 b 325 -137 12 4 155 -139 z "},")":{"ha":627,"x_min":0,"x_max":0,"o":"m 302 -137 b 614 174 473 -139 616 4 l 614 752 b 302 1063 616 922 473 1065 l 14 1063 l 14 797 l 191 797 b 270 764 222 797 248 786 b 302 686 292 743 302 716 l 302 241 b 270 162 302 210 292 184 b 191 130 248 140 222 130 l 14 130 l 14 -137 l 302 -137 z "},"*":{"ha":737,"x_min":0,"x_max":0,"o":"m 272 326 l 368 536 l 466 326 l 664 469 l 492 627 l 724 654 l 648 886 l 445 772 l 491 1000 l 246 1000 l 292 772 l 89 886 l 14 654 l 244 627 l 74 469 z "},"+":{"ha":1094,"x_min":0,"x_max":0,"o":"m 391 903 l 391 591 l 14 591 l 14 325 l 391 325 l 391 14 l 703 14 l 703 325 l 1080 325 l 1080 591 l 703 591 l 703 903 z "},",":{"ha":382,"x_min":0,"x_max":0,"o":"m 214 -267 l 369 0 l 369 267 l 14 267 l 14 0 l 169 0 l 80 -267 z "},"-":{"ha":1027,"x_min":0,"x_max":0,"o":"m 14 589 l 14 323 l 1014 323 l 1014 589 z "},".":{"ha":382,"x_min":0,"x_max":0,"o":"m 14 267 l 14 0 l 369 0 l 369 267 z "},"/":{"ha":783,"x_min":0,"x_max":0,"o":"m 369 -35 l 770 965 l 414 965 l 14 -35 z "},":":{"ha":382,"x_min":0,"x_max":0,"o":"m 14 756 l 14 489 l 369 489 l 369 756 z m 14 267 l 14 0 l 369 0 l 369 267 z "},";":{"ha":382,"x_min":0,"x_max":0,"o":"m 14 756 l 14 490 l 369 490 l 369 756 z m 214 -267 l 369 0 l 369 267 l 14 267 l 14 0 l 169 0 l 80 -267 z "},"<":{"ha":1094,"x_min":0,"x_max":0,"o":"m 14 589 l 14 323 l 1080 56 l 1080 323 l 547 456 l 1080 589 l 1080 856 z "},"=":{"ha":1094,"x_min":0,"x_max":0,"o":"m 14 800 l 14 533 l 1080 533 l 1080 800 z m 14 379 l 14 113 l 1080 113 l 1080 379 z "},">":{"ha":1094,"x_min":0,"x_max":0,"o":"m 14 589 l 547 456 l 14 323 l 14 56 l 1080 323 l 1080 589 l 14 856 z "},"?":{"ha":1116,"x_min":0,"x_max":0,"o":"m 302 701 b 333 758 302 730 313 749 b 447 771 353 766 391 771 l 669 771 b 783 757 725 771 763 766 b 814 701 804 748 814 729 b 693 641 814 667 762 654 b 369 334 561 616 369 572 l 725 334 b 911 512 725 465 818 490 b 1103 701 1006 536 1103 559 b 725 1000 1103 839 1069 1000 l 391 1000 b 186 973 305 1000 237 991 b 74 903 136 955 99 932 b 14 701 22 844 14 770 b 14 678 14 693 14 686 l 302 678 z m 725 0 l 725 222 l 369 222 l 369 0 z "},"@":{"ha":1294,"x_min":0,"x_max":0,"o":"m 947 444 b 764 357 899 389 844 357 b 644 379 701 357 661 364 b 620 452 625 395 620 418 b 764 548 620 520 636 548 b 867 525 804 548 838 541 b 947 460 897 509 924 488 l 954 452 z m 1280 734 b 659 1108 1279 1075 923 1107 b 439 1092 591 1108 518 1103 b 224 1037 359 1081 288 1063 b 14 719 103 987 14 890 l 14 186 b 224 -132 14 14 103 -82 b 427 -187 287 -158 354 -176 b 636 -203 499 -198 569 -203 l 659 -203 l 659 41 l 636 41 b 280 219 526 41 280 71 l 280 686 b 659 863 280 833 547 863 b 767 858 686 863 722 861 b 889 836 812 854 852 847 b 1014 697 959 812 1014 770 l 1014 611 l 996 631 b 975 653 990 639 983 646 b 716 753 901 720 814 753 b 431 664 567 753 479 719 b 369 452 382 609 369 534 b 431 241 369 371 382 296 b 716 152 479 186 567 152 b 872 184 771 152 823 163 b 975 252 911 201 945 224 b 996 273 983 259 990 266 l 1014 294 l 1014 163 l 1280 163 z "},"A":{"ha":1428,"x_min":0,"x_max":0,"o":"m 714 647 l 839 378 l 589 378 z m 14 -1 l 414 -1 l 486 155 l 942 155 l 1014 -1 l 1414 -1 l 925 911 l 503 911 z "},"B":{"ha":1250,"x_min":0,"x_max":0,"o":"m 369 216 l 369 338 l 847 338 b 903 277 878 338 903 308 b 847 216 903 247 878 216 z m 781 694 b 836 633 811 694 836 664 b 781 572 836 603 811 572 l 369 572 l 369 694 z m 1064 471 b 1170 667 1129 512 1170 579 b 880 911 1172 825 1038 911 l 14 911 l 14 -1 l 947 -1 b 1236 244 1104 -1 1238 85 b 1064 471 1236 359 1167 437 z "},"C":{"ha":1270,"x_min":0,"x_max":0,"o":"m 892 378 b 636 267 860 289 758 267 b 370 445 491 269 368 296 l 370 467 b 636 645 368 617 491 643 b 892 534 758 645 859 624 l 1257 534 b 636 935 1234 842 964 934 b 14 490 294 933 12 834 l 14 423 b 636 -22 12 78 294 -21 b 1257 378 964 -22 1234 71 l 892 378 z "},"D":{"ha":1272,"x_min":0,"x_max":0,"o":"m 903 455 b 758 288 903 363 850 288 l 369 288 l 369 622 l 758 622 b 903 455 850 622 903 547 z m 14 911 l 14 -1 l 825 -1 b 1259 455 1075 -4 1261 208 b 825 911 1261 704 1075 914 z "},"E":{"ha":1094,"x_min":0,"x_max":0,"o":"m 14 -1 l 1080 -1 l 1080 233 l 369 233 l 369 350 l 1080 350 l 1080 561 l 369 561 l 369 677 l 1080 677 l 1080 911 l 14 911 z "},"F":{"ha":1139,"x_min":0,"x_max":0,"o":"m 14 -1 l 369 -1 l 369 244 l 1036 244 l 1036 511 l 369 511 l 369 622 l 1125 622 l 1125 911 l 14 911 z "},"G":{"ha":1266,"x_min":0,"x_max":0,"o":"m 633 345 l 920 345 b 636 268 866 276 777 268 b 369 446 490 270 367 296 l 369 468 b 636 646 367 616 490 644 b 778 629 688 646 736 640 b 875 568 820 618 852 598 l 1253 568 b 636 935 1213 848 952 935 b 14 490 293 934 12 835 l 14 423 b 636 -22 12 79 293 -20 b 1057 120 791 -22 951 16 l 1075 -22 l 1253 -22 l 1253 501 l 633 501 z "},"H":{"ha":1272,"x_min":0,"x_max":0,"o":"m 903 312 l 903 1 l 1259 1 l 1259 912 l 903 912 l 903 601 l 369 601 l 369 912 l 14 912 l 14 1 l 369 1 l 369 312 z "},"I":{"ha":382,"x_min":0,"x_max":0,"o":"m 14 912 l 14 1 l 369 1 l 369 912 z "},"J":{"ha":1272,"x_min":0,"x_max":0,"o":"m 903 445 b 635 267 905 295 781 269 b 369 445 490 269 367 295 l 369 534 l 14 534 l 14 422 b 635 -22 12 78 293 -21 b 1258 422 980 -22 1258 79 l 1258 911 l 903 911 z "},"K":{"ha":1339,"x_min":0,"x_max":0,"o":"m 524 312 l 859 1 l 1325 1 l 852 456 l 1325 912 l 859 912 l 524 601 l 369 601 l 369 912 l 14 912 l 14 1 l 369 1 l 369 312 z "},"L":{"ha":1094,"x_min":0,"x_max":0,"o":"m 14 912 l 14 1 l 1080 1 l 1080 290 l 369 290 l 369 912 z "},"M":{"ha":1628,"x_min":0,"x_max":0,"o":"m 14 1 l 369 1 l 369 487 l 725 1 l 903 1 l 1259 487 l 1259 1 l 1614 1 l 1614 912 l 1170 912 l 814 456 l 458 912 l 14 912 z "},"N":{"ha":1272,"x_min":0,"x_max":0,"o":"m 903 429 l 503 912 l 14 912 l 14 1 l 369 1 l 369 557 l 859 1 l 1259 1 l 1259 912 l 903 912 z "},"O":{"ha":1272,"x_min":0,"x_max":0,"o":"m 636 935 b 14 490 293 934 12 835 l 14 423 b 636 -22 12 79 293 -21 b 1258 423 979 -21 1259 79 l 1258 490 b 636 935 1258 834 979 935 z m 903 446 b 636 267 905 296 781 269 b 369 446 490 269 367 296 l 369 468 b 636 646 367 616 490 644 b 903 468 781 644 905 616 z "},"P":{"ha":1250,"x_min":0,"x_max":0,"o":"m 369 489 l 369 644 l 803 644 b 857 621 824 644 842 637 b 880 566 873 606 880 588 b 857 511 880 545 873 527 b 803 489 842 496 824 489 z m 14 911 l 14 -1 l 369 -1 l 369 222 l 892 222 b 1236 566 1080 219 1239 378 b 892 911 1239 755 1080 913 z "},"Q":{"ha":1272,"x_min":0,"x_max":0,"o":"m 1259 489 b 636 934 1260 833 978 932 b 14 489 294 932 12 833 l 14 422 b 636 -22 12 77 294 -21 b 766 -17 680 -22 724 -20 l 880 -200 l 1259 -200 l 1073 69 b 1259 422 1189 137 1259 249 z m 636 267 b 369 444 490 269 368 296 l 369 467 b 636 644 368 616 490 642 b 903 467 781 642 905 616 l 903 444 b 636 267 905 296 781 269 z "},"R":{"ha":1250,"x_min":0,"x_max":0,"o":"m 14 911 l 14 0 l 369 0 l 369 222 l 686 222 l 858 0 l 1236 0 l 1038 256 b 1181 380 1097 283 1145 326 b 1236 567 1218 436 1236 498 b 892 911 1239 755 1080 913 z m 802 645 b 880 567 846 645 880 610 b 857 512 880 546 873 528 b 802 490 842 497 824 490 l 369 490 l 369 645 z "},"S":{"ha":1264,"x_min":0,"x_max":0,"o":"m 386 612 b 632 701 386 684 522 701 b 878 612 743 701 838 684 l 1251 612 b 632 935 1217 897 951 932 b 14 612 312 935 14 872 b 625 353 13 384 370 366 b 878 300 768 347 878 340 b 632 212 878 230 743 212 b 386 300 521 212 427 230 l 14 300 b 632 -22 47 18 313 -21 b 1251 300 952 -22 1251 40 b 640 559 1251 529 894 547 b 386 612 496 566 386 572 z "},"T":{"ha":1227,"x_min":0,"x_max":0,"o":"m 791 -1 l 791 622 l 1214 622 l 1214 911 l 14 911 l 14 622 l 436 622 l 436 -1 z "},"U":{"ha":1272,"x_min":0,"x_max":0,"o":"m 903 445 b 636 267 905 295 781 269 b 369 445 490 269 368 295 l 369 912 l 14 912 l 14 422 b 636 -22 12 78 294 -21 b 1259 422 978 -21 1260 78 l 1259 912 l 903 912 z "},"V":{"ha":1383,"x_min":0,"x_max":0,"o":"m 414 911 l 14 911 l 480 -1 l 903 -1 l 1370 911 l 970 911 l 692 278 z "},"W":{"ha":2072,"x_min":0,"x_max":0,"o":"m 1447 334 l 1236 911 l 836 911 l 625 334 l 414 911 l 14 911 l 414 -1 l 836 -1 l 1036 455 l 1236 -1 l 1659 -1 l 2059 911 l 1659 911 z "},"X":{"ha":1428,"x_min":0,"x_max":0,"o":"m 714 645 l 458 911 l 14 911 l 492 455 l 14 -1 l 458 -1 l 714 266 l 970 -1 l 1414 -1 l 936 455 l 1414 911 l 970 911 z "},"Y":{"ha":1405,"x_min":0,"x_max":0,"o":"m 436 911 l 14 911 l 525 311 l 525 -1 l 880 -1 l 880 311 l 1392 911 l 970 911 l 703 584 z "},"Z":{"ha":1205,"x_min":0,"x_max":0,"o":"m 614 622 l 14 289 l 14 -1 l 1192 -1 l 1192 289 l 570 289 l 1192 622 l 1192 911 l 14 911 l 14 622 z "},"[":{"ha":627,"x_min":0,"x_max":0,"o":"m 325 131 l 325 798 l 614 798 l 614 1065 l 14 1065 l 14 -136 l 614 -136 l 614 131 z "},"\\":{"ha":783,"x_min":0,"x_max":0,"o":"m 369 965 l 14 965 l 414 -35 l 770 -35 z "},"]":{"ha":627,"x_min":0,"x_max":0,"o":"m 14 -136 l 614 -136 l 614 1065 l 14 1065 l 14 798 l 302 798 l 302 131 l 14 131 z "},"_":{"ha":1428,"x_min":0,"x_max":0,"o":"m 14 1 l 14 -244 l 1414 -244 l 1414 1 z "},"a":{"ha":1428,"x_min":0,"x_max":0,"o":"m 714 647 l 839 378 l 589 378 z m 14 -1 l 414 -1 l 486 155 l 942 155 l 1014 -1 l 1414 -1 l 925 911 l 503 911 z "},"b":{"ha":1250,"x_min":0,"x_max":0,"o":"m 369 216 l 369 338 l 847 338 b 903 277 878 338 903 308 b 847 216 903 247 878 216 z m 781 694 b 836 633 811 694 836 664 b 781 572 836 603 811 572 l 369 572 l 369 694 z m 1064 471 b 1170 667 1129 512 1170 579 b 880 911 1172 825 1038 911 l 14 911 l 14 -1 l 947 -1 b 1236 244 1104 -1 1238 85 b 1064 471 1236 359 1167 437 z "},"c":{"ha":1270,"x_min":0,"x_max":0,"o":"m 892 378 b 636 267 860 289 758 267 b 370 445 491 269 368 296 l 370 467 b 636 645 368 617 491 643 b 892 534 758 645 859 624 l 1257 534 b 636 935 1234 842 964 934 b 14 490 294 933 12 834 l 14 423 b 636 -22 12 78 294 -21 b 1257 378 964 -22 1234 71 l 892 378 z "},"d":{"ha":1272,"x_min":0,"x_max":0,"o":"m 903 455 b 758 288 903 363 850 288 l 369 288 l 369 622 l 758 622 b 903 455 850 622 903 547 z m 14 911 l 14 -1 l 825 -1 b 1259 455 1075 -4 1261 208 b 825 911 1261 704 1075 914 z "},"e":{"ha":1094,"x_min":0,"x_max":0,"o":"m 14 -1 l 1080 -1 l 1080 233 l 369 233 l 369 350 l 1080 350 l 1080 561 l 369 561 l 369 677 l 1080 677 l 1080 911 l 14 911 z "},"f":{"ha":1139,"x_min":0,"x_max":0,"o":"m 14 -1 l 369 -1 l 369 244 l 1036 244 l 1036 511 l 369 511 l 369 622 l 1125 622 l 1125 911 l 14 911 z "},"g":{"ha":1266,"x_min":0,"x_max":0,"o":"m 633 345 l 920 345 b 636 268 866 276 777 268 b 369 446 490 270 367 296 l 369 468 b 636 646 367 616 490 644 b 778 629 688 646 736 640 b 875 568 820 618 852 598 l 1253 568 b 636 935 1213 848 952 935 b 14 490 293 934 12 835 l 14 423 b 636 -22 12 79 293 -20 b 1057 120 791 -22 951 16 l 1075 -22 l 1253 -22 l 1253 501 l 633 501 z "},"h":{"ha":1272,"x_min":0,"x_max":0,"o":"m 903 312 l 903 1 l 1259 1 l 1259 912 l 903 912 l 903 601 l 369 601 l 369 912 l 14 912 l 14 1 l 369 1 l 369 312 z "},"i":{"ha":382,"x_min":0,"x_max":0,"o":"m 14 912 l 14 1 l 369 1 l 369 912 z "},"j":{"ha":1272,"x_min":0,"x_max":0,"o":"m 903 445 b 635 267 905 295 781 269 b 369 445 490 269 367 295 l 369 534 l 14 534 l 14 422 b 635 -22 12 78 293 -21 b 1258 422 980 -22 1258 79 l 1258 911 l 903 911 z "},"k":{"ha":1339,"x_min":0,"x_max":0,"o":"m 524 312 l 859 1 l 1325 1 l 852 456 l 1325 912 l 859 912 l 524 601 l 369 601 l 369 912 l 14 912 l 14 1 l 369 1 l 369 312 z "},"l":{"ha":1094,"x_min":0,"x_max":0,"o":"m 14 912 l 14 1 l 1080 1 l 1080 290 l 369 290 l 369 912 z "},"m":{"ha":1628,"x_min":0,"x_max":0,"o":"m 14 1 l 369 1 l 369 487 l 725 1 l 903 1 l 1259 487 l 1259 1 l 1614 1 l 1614 912 l 1170 912 l 814 456 l 458 912 l 14 912 z "},"n":{"ha":1272,"x_min":0,"x_max":0,"o":"m 903 429 l 503 912 l 14 912 l 14 1 l 369 1 l 369 557 l 859 1 l 1259 1 l 1259 912 l 903 912 z "},"o":{"ha":1272,"x_min":0,"x_max":0,"o":"m 636 935 b 14 490 293 934 12 835 l 14 423 b 636 -22 12 79 293 -21 b 1258 423 979 -21 1259 79 l 1258 490 b 636 935 1258 834 979 935 z m 903 446 b 636 267 905 296 781 269 b 369 446 490 269 367 296 l 369 468 b 636 646 367 616 490 644 b 903 468 781 644 905 616 z "},"p":{"ha":1250,"x_min":0,"x_max":0,"o":"m 369 489 l 369 644 l 803 644 b 857 621 824 644 842 637 b 880 566 873 606 880 588 b 857 511 880 545 873 527 b 803 489 842 496 824 489 z m 14 911 l 14 -1 l 369 -1 l 369 222 l 892 222 b 1236 566 1080 219 1239 378 b 892 911 1239 755 1080 913 z "},"q":{"ha":1272,"x_min":0,"x_max":0,"o":"m 1259 489 b 636 934 1260 833 978 932 b 14 489 294 932 12 833 l 14 422 b 636 -22 12 77 294 -21 b 766 -17 680 -22 724 -20 l 880 -200 l 1259 -200 l 1073 69 b 1259 422 1189 137 1259 249 z m 636 267 b 369 444 490 269 368 296 l 369 467 b 636 644 368 616 490 642 b 903 467 781 642 905 616 l 903 444 b 636 267 905 296 781 269 z "},"r":{"ha":1250,"x_min":0,"x_max":0,"o":"m 14 911 l 14 0 l 369 0 l 369 222 l 686 222 l 858 0 l 1236 0 l 1038 256 b 1181 380 1097 283 1145 326 b 1236 567 1218 436 1236 498 b 892 911 1239 755 1080 913 z m 802 645 b 880 567 846 645 880 610 b 857 512 880 546 873 528 b 802 490 842 497 824 490 l 369 490 l 369 645 z "},"s":{"ha":1264,"x_min":0,"x_max":0,"o":"m 386 612 b 632 701 386 684 522 701 b 878 612 743 701 838 684 l 1251 612 b 632 935 1217 897 951 932 b 14 612 312 935 14 872 b 625 353 13 384 370 366 b 878 300 768 347 878 340 b 632 212 878 230 743 212 b 386 300 521 212 427 230 l 14 300 b 632 -22 47 18 313 -21 b 1251 300 952 -22 1251 40 b 640 559 1251 529 894 547 b 386 612 496 566 386 572 z "},"t":{"ha":1227,"x_min":0,"x_max":0,"o":"m 791 -1 l 791 622 l 1214 622 l 1214 911 l 14 911 l 14 622 l 436 622 l 436 -1 z "},"u":{"ha":1272,"x_min":0,"x_max":0,"o":"m 903 445 b 636 267 905 295 781 269 b 369 445 490 269 368 295 l 369 912 l 14 912 l 14 422 b 636 -22 12 78 294 -21 b 1259 422 978 -21 1260 78 l 1259 912 l 903 912 z "},"v":{"ha":1383,"x_min":0,"x_max":0,"o":"m 414 911 l 14 911 l 480 -1 l 903 -1 l 1370 911 l 970 911 l 692 278 z "},"w":{"ha":2072,"x_min":0,"x_max":0,"o":"m 1447 334 l 1236 911 l 836 911 l 625 334 l 414 911 l 14 911 l 414 -1 l 836 -1 l 1036 455 l 1236 -1 l 1659 -1 l 2059 911 l 1659 911 z "},"x":{"ha":1428,"x_min":0,"x_max":0,"o":"m 714 645 l 458 911 l 14 911 l 492 455 l 14 -1 l 458 -1 l 714 266 l 970 -1 l 1414 -1 l 936 455 l 1414 911 l 970 911 z "},"y":{"ha":1405,"x_min":0,"x_max":0,"o":"m 436 911 l 14 911 l 525 311 l 525 -1 l 880 -1 l 880 311 l 1392 911 l 970 911 l 703 584 z "},"z":{"ha":1205,"x_min":0,"x_max":0,"o":"m 614 622 l 14 289 l 14 -1 l 1192 -1 l 1192 289 l 570 289 l 1192 622 l 1192 911 l 14 911 l 14 622 z "},"{":{"ha":783,"x_min":0,"x_max":0,"o":"m 236 174 b 547 -137 234 4 378 -139 l 770 -137 l 770 130 l 614 130 b 535 162 583 130 557 140 b 503 241 513 184 503 210 b 441 390 503 299 482 349 b 292 452 399 431 350 452 b 441 514 350 452 399 473 b 503 663 482 555 503 605 b 535 742 503 694 513 720 b 614 774 557 764 583 774 l 770 774 l 770 1041 l 547 1041 b 236 730 378 1044 234 900 l 236 686 b 197 591 236 648 223 617 b 102 552 171 565 140 552 l 14 552 l 14 452 l 14 352 l 102 352 b 197 313 140 352 171 339 b 236 218 223 287 236 256 z "},"|":{"ha":382,"x_min":0,"x_max":0,"o":"m 14 1065 l 14 -136 l 369 -136 l 369 1065 z "},"}":{"ha":783,"x_min":0,"x_max":0,"o":"m 547 218 b 586 313 547 256 560 287 b 680 352 612 339 644 352 l 770 352 l 770 452 l 770 552 l 680 552 b 586 591 644 552 612 565 b 547 686 560 617 547 648 l 547 730 b 236 1041 549 900 406 1044 l 14 1041 l 14 774 l 169 774 b 248 742 199 774 226 764 b 280 663 269 720 280 694 b 342 514 280 605 300 555 b 492 452 383 473 433 452 b 342 390 433 452 383 431 b 280 241 300 349 280 299 b 248 162 280 210 269 184 b 169 130 226 140 199 130 l 14 130 l 14 -137 l 236 -137 b 547 174 406 -139 549 4 l 547 218 z "},"¦":{"ha":382,"x_min":0,"x_max":0,"o":"m 369 598 l 369 1065 l 14 1065 l 14 598 z m 14 331 l 14 -136 l 369 -136 l 369 331 z "},"©":{"ha":1330,"x_min":0,"x_max":0,"o":"m 825 403 b 665 338 799 351 724 338 b 555 357 631 338 590 343 b 498 441 522 373 498 399 l 498 454 b 665 558 498 540 597 558 b 776 538 701 558 741 553 b 825 493 798 529 814 514 l 833 493 l 1055 493 b 981 633 1048 553 1023 600 b 833 705 940 667 890 691 b 665 726 774 719 719 726 b 498 705 612 726 557 719 b 408 671 466 697 435 686 b 275 467 329 633 275 568 l 275 429 b 498 191 275 292 378 222 b 665 170 557 177 612 170 b 833 191 719 170 774 177 b 924 224 865 199 896 210 b 1055 403 995 260 1045 318 l 833 403 z m 907 113 b 665 81 831 92 751 81 b 422 113 580 81 498 92 b 147 413 146 189 149 359 l 147 483 b 300 734 147 596 198 680 b 421 783 336 753 376 770 l 422 783 l 422 783 b 665 814 499 804 580 814 b 908 783 751 814 831 804 b 1183 483 1184 707 1181 537 l 1183 413 b 1030 162 1183 300 1132 216 b 908 113 994 142 954 126 z m 1095 45 b 1316 413 1224 116 1316 234 l 1316 483 b 944 911 1316 728 1143 856 b 665 948 851 937 754 948 b 386 911 576 948 479 937 b 235 850 332 897 281 876 b 14 483 106 780 14 663 l 14 413 b 386 -15 14 169 186 39 b 665 -52 479 -41 576 -52 b 944 -15 754 -52 851 -41 b 1095 45 998 -1 1048 20 z "},"®":{"ha":1330,"x_min":0,"x_max":0,"o":"m 529 465 l 529 545 l 758 545 b 801 505 782 545 801 527 b 758 465 801 483 782 465 z m 998 505 b 942 629 998 553 979 595 b 807 682 905 664 860 682 l 529 682 l 332 682 l 332 545 l 332 465 l 332 328 l 332 214 l 529 214 l 529 328 l 699 328 l 789 214 l 998 214 l 888 345 b 998 505 954 374 998 434 z m 1183 413 b 1030 162 1183 300 1132 216 b 909 113 994 142 954 126 l 908 113 l 907 113 b 665 81 831 92 751 81 b 422 113 580 81 498 92 b 147 413 146 189 149 359 l 147 483 b 300 734 147 596 198 680 b 421 783 336 753 376 770 l 422 783 l 422 783 b 665 814 499 804 580 814 b 908 783 751 814 831 804 b 1183 483 1184 707 1181 537 z m 1316 483 b 944 911 1316 728 1143 856 b 665 948 851 937 754 948 b 386 911 576 948 479 937 b 235 850 332 897 281 876 b 14 483 106 780 14 663 l 14 413 b 386 -15 14 169 186 39 b 665 -52 479 -41 576 -52 b 944 -15 754 -52 851 -41 b 1095 45 998 -1 1048 20 b 1316 413 1224 116 1316 234 z "},"±":{"ha":1094,"x_min":0,"x_max":0,"o":"m 14 245 l 14 0 l 1080 0 l 1080 245 z m 703 334 l 703 511 l 1080 511 l 1080 756 l 703 756 l 703 934 l 391 934 l 391 756 l 14 756 l 14 511 l 391 511 l 391 334 z "},"×":{"ha":1105,"x_min":0,"x_max":0,"o":"m 14 265 l 159 41 l 552 297 l 946 41 l 1091 265 l 798 456 l 1091 647 l 946 871 l 552 615 l 159 871 l 14 647 l 307 456 z "},"÷":{"ha":1094,"x_min":0,"x_max":0,"o":"m 1080 325 l 1080 591 l 14 591 l 14 325 z m 703 236 l 391 236 l 391 14 l 703 14 z m 391 680 l 703 680 l 703 903 l 391 903 z "},"™":{"ha":1628,"x_min":0,"x_max":0,"o":"m 239 758 l 239 426 l 429 426 l 429 758 l 654 758 l 654 912 l 14 912 l 14 758 z m 1614 426 l 1614 912 l 1377 912 l 1187 669 l 998 912 l 760 912 l 760 426 l 950 426 l 950 685 l 1140 426 l 1235 426 l 1424 685 l 1424 426 z "},"−":{"ha":1094,"x_min":0,"x_max":0,"o":"m 14 589 l 14 323 l 1080 323 l 1080 589 z "},"≤":{"ha":1094,"x_min":0,"x_max":0,"o":"m 14 722 l 14 511 l 1080 322 l 1080 534 l 576 623 l 1080 722 l 1080 934 z m 14 245 l 14 0 l 1080 0 l 1080 245 z "},"≥":{"ha":1094,"x_min":0,"x_max":0,"o":"m 14 722 l 517 623 l 14 534 l 14 322 l 1080 511 l 1080 722 l 14 934 z m 14 0 l 1080 0 l 1080 245 l 14 245 z "}}}
